<?xml version="1.0" encoding="utf-8"?>
<!-- Generator: Adobe Illustrator 26.0.3, SVG Export Plug-In . SVG Version: 6.00 Build 0)  -->
<svg version="1.0" id="katman_1" xmlns="http://www.w3.org/2000/svg" xmlns:xlink="http://www.w3.org/1999/xlink" x="0px" y="0px"
	 viewBox="0 0 221.8 153.4" style="enable-background:new 0 0 221.8 153.4;" xml:space="preserve">
<style type="text/css">
	.st0{clip-path:url(#SVGID_00000108291268246726382580000016517556790055549860_);}
</style>
<g>
	<defs>
		<rect id="SVGID_1_" x="20.4" y="55.3" width="180.6" height="42.7"/>
	</defs>
	<clipPath id="SVGID_00000176043347424789782620000016250620787809366195_">
		<use xlink:href="#SVGID_1_"  style="overflow:visible;"/>
	</clipPath>
	<g style="clip-path:url(#SVGID_00000176043347424789782620000016250620787809366195_);">
		<path d="M92.4,57.1h-20v8h20V57.1z"/>
		<path d="M41.4,57.1h-8v26h8V57.1z"/>
		<path d="M54.4,57.1h-8v38h8V57.1z"/>
		<path d="M28.4,57.1h-8v38h8V57.1z"/>
		<path d="M80.4,70.1h-8v25h8V70.1z"/>
		<path d="M67.4,57.1h-8v8h8V57.1z"/>
		<path d="M67.4,70.1h-8v25h8V70.1z"/>
		<path d="M109.4,57.1h3.3l1.6,6.6h0l1.6-6.6h3.2V66H117v-6.9h0l-1.8,6.9h-2l-1.8-6.9h0V66h-2V57.1z"/>
		<path d="M126.4,64.6c0,0.5,0,1,0.2,1.4h-1.8c-0.1-0.2-0.1-0.5-0.1-0.7h0c-0.3,0.5-1.3,0.9-2,0.9c-1.3,0-2.2-0.7-2.2-2
			c0-1.6,1.3-2.2,3.4-2.5l0.7-0.1v-0.6c0-0.5-0.4-0.7-0.9-0.7c-0.6,0-0.9,0.2-1,0.9h-1.9c0.1-1.9,1.8-2.1,2.7-2.1
			c1.8,0,2.9,0.4,3,1.9V64.6z M124.5,62.7l-1.3,0.4c-0.5,0.1-0.9,0.3-0.9,0.9c0,0.5,0.4,0.8,0.9,0.8c0.8,0,1.3-0.5,1.3-1.5
			L124.5,62.7L124.5,62.7z"/>
		<path d="M132.5,61.3c-0.4-0.5-1.2-0.7-1.8-0.7c-0.5,0-0.8,0.2-0.8,0.5c0,1.1,3.9,0.2,3.9,2.7c0,1.8-1.6,2.4-3,2.4
			c-1.4,0-2.3-0.4-3.2-1.3l1.2-1.1c0.6,0.6,1.2,0.9,2.1,0.9c0.3,0,1.1-0.1,1.1-0.7c0-1-3.9-0.2-3.9-2.6c0-1.7,1.5-2.3,2.8-2.3
			c1,0,2,0.4,2.9,1L132.5,61.3z"/>
		<path d="M139.5,61.3c-0.4-0.5-1.2-0.7-1.8-0.7c-0.5,0-0.8,0.2-0.8,0.5c0,1.1,3.9,0.2,3.9,2.7c0,1.8-1.5,2.4-3,2.4
			c-1.5,0-2.3-0.4-3.2-1.3l1.2-1.1c0.6,0.6,1.2,0.9,2.1,0.9c0.3,0,1.1-0.1,1.1-0.7c0-1-3.9-0.2-3.9-2.6c0-1.7,1.5-2.3,2.8-2.3
			c1,0,2,0.4,2.9,1L139.5,61.3z"/>
		<path d="M147.7,64.6c0,0.5,0,1,0.2,1.4h-1.8c-0.1-0.2-0.1-0.5-0.1-0.7h0c-0.3,0.5-1.3,0.9-2,0.9c-1.3,0-2.2-0.7-2.2-2
			c0-1.6,1.3-2.2,3.4-2.5l0.7-0.1v-0.6c0-0.5-0.4-0.7-0.9-0.7c-0.6,0-0.9,0.2-1,0.9H142c0.1-1.9,1.8-2.1,2.7-2.1c1.8,0,3,0.4,3,1.9
			V64.6z M145.9,62.7l-1.3,0.4c-0.5,0.1-0.9,0.3-0.9,0.9c0,0.5,0.4,0.8,0.9,0.8c0.8,0,1.3-0.5,1.3-1.5L145.9,62.7L145.9,62.7z"/>
		<path d="M153.8,61.6c-0.4-0.8-0.9-0.9-1.2-0.9c-1.1,0-1.5,0.9-1.5,2s0.5,2,1.5,2c0.6,0,1.1-0.2,1.4-1l1.4,0.7
			c-0.6,1.1-1.7,1.8-3,1.8c-2,0-3.4-1.3-3.4-3.5c0-2.2,1.5-3.5,3.3-3.5c1.3,0,2.3,0.5,3,1.6L153.8,61.6z"/>
		<path d="M156.5,57.1h1.9V60h0c0.4-0.5,1.2-0.8,1.8-0.8c1.4,0,2.1,0.8,2.1,2.1V66h-1.9v-4c0-1-0.6-1.3-1-1.3c-0.4,0-1,0.3-1,1.5V66
			h-1.9L156.5,57.1L156.5,57.1z"/>
		<path d="M170,66h-1.9v-0.6c-0.5,0.6-1.3,0.8-1.9,0.8c-1.6,0-2-0.9-2-1.9v-4.9h1.9v4.3c0,0.6,0.2,0.9,0.9,0.9c0.6,0,1-0.3,1-1v-4.2
			h1.9L170,66L170,66z"/>
		<path d="M176.1,61.3c-0.4-0.5-1.2-0.7-1.8-0.7c-0.5,0-0.8,0.2-0.8,0.5c0,1.1,3.9,0.2,3.9,2.7c0,1.8-1.6,2.4-3,2.4
			c-1.4,0-2.3-0.4-3.2-1.3l1.2-1.1c0.6,0.6,1.2,0.9,2.1,0.9c0.3,0,1.1-0.1,1.1-0.7c0-1-3.9-0.2-3.9-2.6c0-1.7,1.5-2.3,2.8-2.3
			c1,0,2,0.4,2.9,1L176.1,61.3z"/>
		<path d="M180.2,63.1c0,1.3,0.8,1.7,1.4,1.7c0.7,0,1.1-0.4,1.6-1.2l1.5,0.8c-0.7,1.3-1.7,1.8-3.2,1.8c-2.1,0-3.3-1.4-3.3-3.3
			c0-2.3,1.2-3.7,3.3-3.7c2.4,0,3.2,1.8,3.3,3.9H180.2z M182.8,61.9c-0.1-1-0.8-1.3-1.3-1.3s-1.2,0.4-1.3,1.3H182.8z"/>
		<path d="M189.4,60.7h-1.2v3.3c0,0.5,0.3,0.7,0.6,0.7c0.2,0,0.5,0,0.6,0v1.5c-0.2,0-0.8,0.1-1.2,0.1c-1.7,0-1.9-1-1.9-2v-3.5h-0.9
			v-1.2h0.9v-1.9h1.9v1.9h1.2V60.7z"/>
		<path d="M193.8,60.7h-1.2v3.3c0,0.5,0.3,0.7,0.6,0.7c0.2,0,0.5,0,0.6,0v1.5c-0.2,0-0.8,0.1-1.2,0.1c-1.7,0-1.9-1-1.9-2v-3.5h-0.9
			v-1.2h0.9v-1.9h1.9v1.9h1.2V60.7z"/>
		<path d="M199.2,61.3c-0.4-0.5-1.2-0.7-1.8-0.7c-0.5,0-0.8,0.2-0.8,0.5c0,1.1,3.9,0.2,3.9,2.7c0,1.8-1.6,2.4-3,2.4
			c-1.4,0-2.3-0.4-3.2-1.3l1.2-1.1c0.6,0.6,1.2,0.9,2.1,0.9c0.3,0,1.1-0.1,1.1-0.7c0-1-3.9-0.2-3.9-2.6c0-1.7,1.5-2.3,2.8-2.3
			c1,0,2,0.4,2.9,1L199.2,61.3z"/>
		<path d="M109.5,71.6h2.2v8.9h-2.2V71.6z"/>
		<path d="M113.4,73.9h2v0.6c0.5-0.6,1.3-0.8,1.9-0.8c1.6,0,2,0.9,2,1.9v4.9h-1.9v-4.2c0-0.6-0.2-1.1-0.9-1.1c-0.8,0-1,0.5-1,1.1
			v4.1h-2V73.9z"/>
		<path d="M125.4,75.8c-0.4-0.5-1.2-0.7-1.8-0.7c-0.5,0-0.8,0.2-0.8,0.5c0,1.1,3.9,0.2,3.9,2.7c0,1.7-1.5,2.4-3,2.4
			c-1.4,0-2.3-0.4-3.2-1.3l1.2-1.1c0.6,0.6,1.2,0.9,2.1,0.9c0.3,0,1.1-0.1,1.1-0.7c0-1-3.9-0.2-3.9-2.6c0-1.7,1.5-2.3,2.8-2.3
			c1,0,2,0.4,2.9,1L125.4,75.8z"/>
		<path d="M131.3,75.2h-1.2v3.3c0,0.5,0.3,0.7,0.6,0.7c0.2,0,0.5,0,0.6,0v1.5c-0.2,0-0.8,0.1-1.2,0.1c-1.7,0-1.9-1-1.9-2v-3.5h-0.9
			V74h0.9v-1.9h1.9V74h1.2V75.2z"/>
		<path d="M132.4,73.1v-1.5h1.9v1.5H132.4z M134.4,73.9v6.6h-1.9v-6.6H134.4z"/>
		<path d="M139.4,75.2h-1.2v3.3c0,0.5,0.3,0.7,0.6,0.7c0.2,0,0.5,0,0.6,0v1.5c-0.2,0-0.8,0.1-1.2,0.1c-1.7,0-1.9-1-1.9-2v-3.5h-0.9
			V74h0.9v-1.9h1.9V74h1.2V75.2z"/>
		<path d="M146.4,80.5h-1.9v-0.6c-0.5,0.6-1.3,0.8-1.9,0.8c-1.6,0-2-0.9-2-1.9v-4.9h1.9v4.3c0,0.6,0.2,0.9,0.9,0.9c0.6,0,1-0.3,1-1
			v-4.2h1.9L146.4,80.5L146.4,80.5z"/>
		<path d="M151.4,75.2h-1.2v3.3c0,0.5,0.3,0.7,0.6,0.7c0.2,0,0.5,0,0.6,0v1.5c-0.2,0-0.8,0.1-1.2,0.1c-1.7,0-1.9-1-1.9-2v-3.5h-0.9
			V74h0.9v-1.9h1.9V74h1.2V75.2z"/>
		<path d="M154,77.6c0,1.3,0.8,1.7,1.4,1.7c0.7,0,1.1-0.4,1.6-1.2l1.5,0.8c-0.7,1.2-1.7,1.8-3.2,1.8c-2.1,0-3.3-1.4-3.3-3.3
			c0-2.3,1.2-3.7,3.3-3.7c2.4,0,3.2,1.8,3.3,3.9H154z M156.6,76.4c-0.1-1-0.8-1.3-1.3-1.3c-0.6,0-1.2,0.4-1.3,1.3H156.6z"/>
		<path d="M170,77.2c0,2.2-1.5,3.5-3.5,3.5c-2.1,0-3.5-1.3-3.5-3.5s1.5-3.5,3.5-3.5C168.6,73.7,170,75,170,77.2z M164.9,77.2
			c0,1.1,0.5,2,1.6,2s1.6-0.9,1.6-2.1c0-1.1-0.5-1.9-1.6-1.9S164.9,76.1,164.9,77.2z"/>
		<path d="M171.6,75.2h-1V74h1v-0.7c0-0.8,0.2-1.8,1.9-1.8c0.4,0,1,0.1,1.3,0.2v1.4h-0.6c-0.3,0-0.7,0.1-0.7,0.5V74h1.2v1.2h-1.2
			v5.3h-1.9L171.6,75.2L171.6,75.2z"/>
		<path d="M107.2,86.2h6.9v1.7h-2.3v7.2h-2.2v-7.2h-2.3V86.2z"/>
		<path d="M115.6,92.2c0,1.3,0.8,1.7,1.4,1.7c0.7,0,1.1-0.4,1.6-1.2l1.5,0.8c-0.7,1.2-1.7,1.8-3.2,1.8c-2.1,0-3.3-1.4-3.3-3.3
			c0-2.3,1.2-3.7,3.3-3.7c2.4,0,3.2,1.9,3.3,3.9H115.6z M118.2,91c-0.1-1-0.8-1.3-1.3-1.3c-0.6,0-1.2,0.4-1.3,1.3H118.2z"/>
		<path d="M125.8,90.7c-0.4-0.8-1-0.9-1.2-0.9c-1.1,0-1.5,0.9-1.5,2s0.5,2,1.5,2c0.6,0,1.1-0.2,1.4-1l1.4,0.7
			c-0.6,1.1-1.7,1.8-3,1.8c-2,0-3.4-1.3-3.4-3.5c0-2.2,1.5-3.5,3.3-3.5c1.3,0,2.3,0.5,3,1.6L125.8,90.7z"/>
		<path d="M128.5,86.2h1.9v2.9h0c0.4-0.5,1.2-0.8,1.8-0.8c1.4,0,2.1,0.8,2.1,2.1v4.7h-1.9v-4c0-1-0.6-1.3-1-1.3c-0.4,0-1,0.3-1,1.5
			v3.7h-1.9L128.5,86.2L128.5,86.2z"/>
		<path d="M136.1,88.4h1.9V89c0.5-0.6,1.3-0.8,1.9-0.8c1.6,0,2,0.9,2,1.9v4.9h-1.9v-4.2c0-0.7-0.2-1.1-0.9-1.1c-0.8,0-1,0.5-1,1.1
			v4.1h-1.9L136.1,88.4L136.1,88.4z"/>
		<path d="M150.4,91.8c0,2.2-1.5,3.5-3.5,3.5c-2.1,0-3.5-1.3-3.5-3.5s1.5-3.5,3.5-3.5C148.9,88.3,150.4,89.5,150.4,91.8z
			 M145.2,91.8c0,1.1,0.5,2,1.6,2c1.1,0,1.6-0.9,1.6-2.1c0-1.1-0.5-1.9-1.6-1.9C145.7,89.8,145.2,90.6,145.2,91.8z"/>
		<path d="M151.6,95.1v-8.9h1.9v8.9H151.6z"/>
		<path d="M161.9,91.8c0,2.2-1.5,3.5-3.5,3.5c-2.1,0-3.5-1.3-3.5-3.5s1.5-3.5,3.5-3.5C160.5,88.3,161.9,89.5,161.9,91.8z
			 M156.8,91.8c0,1.1,0.5,2,1.6,2s1.6-0.9,1.6-2.1c0-1.1-0.5-1.9-1.6-1.9S156.8,90.6,156.8,91.8z"/>
		<path d="M169,88.4v6.7c0,2.1-2.2,2.2-3.2,2.2c-2,0-3-0.7-3.1-2.3h2c0,0.7,0.4,1,1.1,1c0.7,0,1.2-0.2,1.2-1.1v-0.8
			c-0.4,0.4-1.2,0.5-1.8,0.5c-1.9,0-2.6-1.5-2.6-3.2c0-1.6,0.9-3.2,2.6-3.2c0.7,0,1.4,0.2,1.9,0.7v-0.5H169z M165.9,89.7
			c-0.6,0-1.2,0.4-1.2,1.8c0,0.8,0.2,1.8,1.2,1.8c1.2,0,1.3-1.1,1.3-1.8C167.2,90.1,166.5,89.7,165.9,89.7z"/>
		<path d="M170.5,95.8c0.2,0,0.4,0,0.7,0c0.6,0,0.9-0.1,0.9-0.5c0-0.1,0-0.2-0.2-0.7l-1.9-6.1h2l1.1,5.1h0l1.1-5.1h2.1l-2.3,7.1
			c-0.3,1-0.8,1.8-1.9,1.8h-1.5L170.5,95.8L170.5,95.8z"/>
	</g>
</g>
</svg>
